<!--
C 关键字的含义
  关键字 C，对应单词：cubic，表示：“立方”。
  C 的全称是 "Cubic Bézier Curve"（三次贝塞尔曲线）。
  这个命令用于绘制一个由两个控制点和一个终点定义的平滑曲线。

示例 <path d="M 20 50 C 30 30, 50 70, 60 50" fill="none" stroke="blue" stroke-width="1" />
  M 20 50
    移动到起点 (20, 50)。
  C 30 30, 50 70, 60 50
    表示从当前点（即起点）开始，绘制一条三次贝塞尔曲线到终点 (60, 50)。
    C 后面的参数 30 30, 50 70, 60 50 分别是两个控制点和终点的坐标。
-->
<svg width="110px" height="110px" xmlns="http://www.w3.org/2000/svg">
  <g font-size="4" stroke="lightgray" stroke-width=".1">
    <!-- 纵向网格线 -->
    <line x1="0" y1="0" x2="0" y2="100" />
    <line x1="10" y1="0" x2="10" y2="100" />
    <line x1="20" y1="0" x2="20" y2="100" />
    <line x1="30" y1="0" x2="30" y2="100" />
    <line x1="40" y1="0" x2="40" y2="100" />
    <line x1="50" y1="0" x2="50" y2="100" />
    <line x1="60" y1="0" x2="60" y2="100" />
    <line x1="70" y1="0" x2="70" y2="100" />
    <line x1="80" y1="0" x2="80" y2="100" />
    <line x1="90" y1="0" x2="90" y2="100" />
    <line x1="100" y1="0" x2="100" y2="100" />

    <!-- 横向网格线 -->
    <line x1="0" y1="0" x2="100" y2="0" />
    <line x1="0" y1="10" x2="100" y2="10" />
    <line x1="0" y1="20" x2="100" y2="20" />
    <line x1="0" y1="30" x2="100" y2="30" />
    <line x1="0" y1="40" x2="100" y2="40" />
    <line x1="0" y1="50" x2="100" y2="50" />
    <line x1="0" y1="60" x2="100" y2="60" />
    <line x1="0" y1="70" x2="100" y2="70" />
    <line x1="0" y1="80" x2="100" y2="80" />
    <line x1="0" y1="90" x2="100" y2="90" />
    <line x1="0" y1="100" x2="100" y2="100" />

    <!-- 纵向刻度值 -->
    <text x="0" y="4" fill="black">0</text>
    <text x="0" y="11" fill="black">10</text>
    <text x="0" y="21" fill="black">20</text>
    <text x="0" y="31" fill="black">30</text>
    <text x="0" y="41" fill="black">40</text>
    <text x="0" y="51" fill="black">50</text>
    <text x="0" y="61" fill="black">60</text>
    <text x="0" y="71" fill="black">70</text>
    <text x="0" y="81" fill="black">80</text>
    <text x="0" y="91" fill="black">90</text>
    <text x="0" y="101" fill="black">100</text>

    <!-- 横向刻度线 -->
    <text x="8" y="4" fill="black">10</text>
    <text x="18" y="4" fill="black">20</text>
    <text x="28" y="4" fill="black">30</text>
    <text x="38" y="4" fill="black">40</text>
    <text x="48" y="4" fill="black">50</text>
    <text x="58" y="4" fill="black">60</text>
    <text x="68" y="4" fill="black">70</text>
    <text x="78" y="4" fill="black">80</text>
    <text x="88" y="4" fill="black">90</text>
    <text x="98" y="4" fill="black">100</text>
  </g>

  <path d="M 20 50 C 30 30, 50 70, 60 50" fill="none" stroke="blue" stroke-width="1" />

  <!-- 辅助线 -->
  <line x1="20" y1="50" x2="30" y2="30" stroke="orange" stroke-width=".5" />
  <line x1="30" y1="30" x2="50" y2="70" stroke="orange" stroke-width=".5" />
  <line x1="60" y1="50" x2="50" y2="70" stroke="orange" stroke-width=".5" />

  <!-- 辅助点 -->
  <circle cx="20" cy="50" r="1" fill="red" />
  <circle cx="30" cy="30" r="1" fill="red" />
  <circle cx="50" cy="70" r="1" fill="red" />
  <circle cx="60" cy="50" r="1" fill="red" />
</svg>