<!--
textPath mdn doc => https://developer.mozilla.org/zh-CN/docs/Web/SVG/Element/textPath

textPath 用于将文本沿着指定的路径进行排列，使文本能够遵循任何复杂形状或曲线，从而创造动态和视觉上吸引人的文本效果。

文字将按照 path 路径来展现。

<textPath> 使用 href 属性，链接指定 id 的 path 图形。
-->
<svg style="margin: 3rem;" width="500px" height="500px" viewBox="0 0 120 120" xmlns="http://www.w3.org/2000/svg">
  <g font-size="4" stroke="lightgray" stroke-width=".1">
    <!-- 纵向网格线 -->
    <line x1="0" y1="0" x2="0" y2="100" />
    <line x1="10" y1="0" x2="10" y2="100" />
    <line x1="20" y1="0" x2="20" y2="100" />
    <line x1="30" y1="0" x2="30" y2="100" />
    <line x1="40" y1="0" x2="40" y2="100" />
    <line x1="50" y1="0" x2="50" y2="100" />
    <line x1="60" y1="0" x2="60" y2="100" />
    <line x1="70" y1="0" x2="70" y2="100" />
    <line x1="80" y1="0" x2="80" y2="100" />
    <line x1="90" y1="0" x2="90" y2="100" />
    <line x1="100" y1="0" x2="100" y2="100" />

    <!-- 横向网格线 -->
    <line x1="0" y1="0" x2="100" y2="0" />
    <line x1="0" y1="10" x2="100" y2="10" />
    <line x1="0" y1="20" x2="100" y2="20" />
    <line x1="0" y1="30" x2="100" y2="30" />
    <line x1="0" y1="40" x2="100" y2="40" />
    <line x1="0" y1="50" x2="100" y2="50" />
    <line x1="0" y1="60" x2="100" y2="60" />
    <line x1="0" y1="70" x2="100" y2="70" />
    <line x1="0" y1="80" x2="100" y2="80" />
    <line x1="0" y1="90" x2="100" y2="90" />
    <line x1="0" y1="100" x2="100" y2="100" />

    <!-- 纵向刻度值 -->
    <text x="0" y="4" fill="black">0</text>
    <text x="0" y="11" fill="black">10</text>
    <text x="0" y="21" fill="black">20</text>
    <text x="0" y="31" fill="black">30</text>
    <text x="0" y="41" fill="black">40</text>
    <text x="0" y="51" fill="black">50</text>
    <text x="0" y="61" fill="black">60</text>
    <text x="0" y="71" fill="black">70</text>
    <text x="0" y="81" fill="black">80</text>
    <text x="0" y="91" fill="black">90</text>
    <text x="0" y="101" fill="black">100</text>

    <!-- 横向刻度线 -->
    <text x="8" y="4" fill="black">10</text>
    <text x="18" y="4" fill="black">20</text>
    <text x="28" y="4" fill="black">30</text>
    <text x="38" y="4" fill="black">40</text>
    <text x="48" y="4" fill="black">50</text>
    <text x="58" y="4" fill="black">60</text>
    <text x="68" y="4" fill="black">70</text>
    <text x="78" y="4" fill="black">80</text>
    <text x="88" y="4" fill="black">90</text>
    <text x="98" y="4" fill="black">100</text>
  </g>
  <path id="MyPath" fill="none" stroke="pink"
    d="M10,90 Q90,90 90,45 Q90,10 50,10 Q10,10 10,40 Q10,70 45,70 Q70,70 75,50" />

  <text fill="lightblue" font-size="8">
    <textPath href="#MyPath">
      Tdahuyou
      Tdahuyou
      Tdahuyou
      Tdahuyou
      Tdahuyou
      Tdahuyou
      Tdahuyou
      Tdahuyou
    </textPath>
  </text>
</svg>